<svg version="1.1" xmlns="http://www.w3.org/2000/svg" xmlns:xlink="http://www.w3.org/1999/xlink" width="139.82916" height="139.62577" viewBox="0,0,139.82916,139.62577"><g transform="translate(-170.08542,-110.18712)"><g data-paper-data="{&quot;isPaintingLayer&quot;:true}" fill-rule="nonzero" stroke-linejoin="miter" stroke-miterlimit="10" stroke-dasharray="" stroke-dashoffset="0" style="mix-blend-mode: normal"><path d="M263.86667,221.53268c0,0 -1.21044,-10.16904 2.66667,-14.33333c3.8771,-4.1643 15.33333,-5 15.33333,-5l23.66667,29l-10,11l-4.66667,2.66667z" fill="#ffffff" stroke="#000000" stroke-width="0" stroke-linecap="round"/><path d="M306.73313,240.44213c-4.17864,4.17864 -11.0079,4.17864 -15.18654,0l-18.63236,-18.63236c-4.17864,-4.17864 -4.17864,-11.0079 0,-15.18654c4.17864,-4.17864 11.0079,-4.17864 15.18654,0l18.61677,18.61677c4.19423,4.19423 4.19423,11.02349 0.01559,15.20214z" fill="#ffb89a" stroke="none" stroke-width="1" stroke-linecap="butt"/><path d="M224.20503,119.54228c-6.04967,0 -11.91224,1.18499 -17.41619,3.50818c-5.33244,2.26083 -10.11916,5.48836 -14.23544,9.60463c-4.11627,4.11627 -7.3438,8.90299 -9.60463,14.23544c-2.3232,5.50396 -3.50818,11.38211 -3.50818,17.41619c0,6.03408 1.16939,11.89665 3.50818,17.41619c2.26083,5.33244 5.48836,10.11916 9.60463,14.23544c4.11627,4.11627 8.90299,7.3438 14.23544,9.60463c5.50396,2.3232 11.38211,3.50818 17.41619,3.50818c6.03408,0 11.89665,-1.16939 17.41619,-3.50818c5.33244,-2.26083 10.11916,-5.48836 14.23544,-9.60463c4.11627,-4.11627 7.3438,-8.90299 9.60463,-14.23544c2.3232,-5.50396 3.50818,-11.38211 3.50818,-17.41619c0,-6.03408 -1.16939,-11.89665 -3.50818,-17.41619c-2.26083,-5.33244 -5.48836,-10.11916 -9.60463,-14.23544c-4.11627,-4.11627 -8.90299,-7.3438 -14.23544,-9.60463c-5.50396,-2.3232 -11.36652,-3.50818 -17.41619,-3.50818M278.32462,164.30672c0,29.88974 -24.22986,54.1196 -54.1196,54.1196c-29.88974,0 -54.1196,-24.22986 -54.1196,-54.1196c0,-29.88974 24.22986,-54.1196 54.1196,-54.1196c29.88974,0 54.1196,24.22986 54.1196,54.1196zM301.63457,245.72779l4.22541,-4.22541c5.33244,-5.34803 5.4104,-13.98596 0.20269,-19.41196l-16.05969,-20.22273l-0.17151,-0.20269l-0.1871,-0.1871c-4.06949,-4.06949 -10.33745,-5.19211 -15.59193,-2.79095c-2.35438,1.07585 -3.38345,3.85121 -2.3076,6.20559c1.07585,2.35438 3.85121,3.38345 6.20559,2.3076c1.65274,-0.764 3.60174,-0.45217 4.92705,0.74841l16.16883,20.37866l0.1871,0.1871c1.76189,1.76189 1.76189,4.6308 0,6.39269l-4.22541,4.22541c-1.76189,1.76189 -4.6308,1.76189 -6.39269,0l-0.1871,-0.1871l-20.45662,-16.15324c-1.30972,-1.46564 -1.5436,-3.6797 -0.51454,-5.37922c1.34091,-2.21405 0.62368,-5.08297 -1.59037,-6.42388c-2.21405,-1.34091 -5.08297,-0.62368 -6.42388,1.59037c-3.30549,5.47277 -2.46353,12.45796 2.05814,16.97961l0.1871,0.1871l20.53458,16.21561c2.66622,2.57267 6.12763,3.85121 9.58904,3.85121c3.55496,0 7.10992,-1.3565 9.82292,-4.08509z" fill="#45484c" stroke="none" stroke-width="1" stroke-linecap="butt"/><path d="M224.20503,119.49228c6.04967,0 11.93168,1.18892 17.43564,3.51212c5.33244,2.26083 10.13507,5.49907 14.25134,9.61534c4.11627,4.11627 7.35451,8.9189 9.61534,14.25134c2.33879,5.51954 3.51212,11.40156 3.51212,17.43564c0,6.03408 -1.18892,11.93168 -3.51212,17.43564c-2.26083,5.33244 -5.49907,10.13507 -9.61534,14.25134c-4.11627,4.11627 -8.9189,7.35451 -14.25134,9.61534c-5.51954,2.33879 -11.40156,3.51212 -17.43564,3.51212c-6.03408,0 -11.93168,-1.18892 -17.43564,-3.51212c-5.33244,-2.26083 -10.13507,-5.49907 -14.25134,-9.61534c-4.11627,-4.11627 -7.35451,-8.9189 -9.61534,-14.25134c-2.33879,-5.51954 -3.51212,-11.40156 -3.51212,-17.43564c0,-6.03408 1.18892,-11.93168 3.51212,-17.43564c2.26083,-5.33244 5.49907,-10.13507 9.61534,-14.25134c4.11627,-4.11627 8.9189,-7.35451 14.25134,-9.61534c5.50396,-2.32319 11.38597,-3.51212 17.43564,-3.51212" data-paper-data="{&quot;noHover&quot;:false,&quot;origItem&quot;:[&quot;Path&quot;,{&quot;applyMatrix&quot;:true,&quot;segments&quot;:[[[224.20503,119.54228],[0,0],[-6.04967,0]],[[206.78884,123.05046],[5.50396,-2.32319],[-5.33244,2.26083]],[[192.5534,132.65509],[4.11627,-4.11627],[-4.11627,4.11627]],[[182.94877,146.89053],[2.26083,-5.33244],[-2.3232,5.50396]],[[179.44059,164.30672],[0,-6.03408],[0,6.03408]],[[182.94877,181.72291],[-2.33879,-5.51954],[2.26083,5.33244]],[[192.5534,195.95834],[-4.11627,-4.11627],[4.11627,4.11627]],[[206.78884,205.56298],[-5.33244,-2.26083],[5.50396,2.3232]],[[224.20503,209.07116],[-6.03408,0],[6.03408,0]],[[241.62122,205.56298],[-5.51954,2.33879],[5.33244,-2.26083]],[[255.85666,195.95834],[-4.11627,4.11627],[4.11627,-4.11627]],[[265.46129,181.72291],[-2.26083,5.33244],[2.3232,-5.50396]],[[268.96947,164.30672],[0,6.03408],[0,-6.03408]],[[265.46129,146.89053],[2.33879,5.51954],[-2.26083,-5.33244]],[[255.85666,132.65509],[4.11627,4.11627],[-4.11627,-4.11627]],[[241.62122,123.05046],[5.33244,2.26083],[-5.50396,-2.3232]],[[224.20503,119.54228],[6.04967,0],[0,0]]],&quot;fillColor&quot;:[0,0,0,1]}]}" fill="#ffffff" stroke="none" stroke-width="0.5" stroke-linecap="butt"/><path d="M200.14667,186.66555c-1.57479,0 -3.1028,-0.79519 -3.99153,-2.22964c-1.3565,-2.19847 -0.67045,-5.08297 1.52801,-6.43947c7.67123,-4.73995 16.0441,-10.75843 24.19868,-17.43178c10.77403,-8.80945 20.45662,-18.14901 27.23911,-26.288c7.29702,-8.74708 8.96536,-13.37788 9.02773,-14.73437c-1.26295,-1.98018 -0.88874,-4.6308 0.98229,-6.14322c1.99577,-1.63716 4.94265,-1.34091 6.57979,0.65486c2.29201,2.80655 2.40116,6.72012 0.29625,11.61599c-1.48123,3.44582 -4.08509,7.5465 -7.76478,12.20848c-7.23466,9.16806 -18.05546,19.80175 -30.43545,29.93651c-8.46642,6.93841 -17.1979,13.20637 -25.21215,18.14901c-0.764,0.48335 -1.60597,0.70164 -2.44793,0.70164zM176.36897,197.03418c-0.88874,0 -1.69952,-0.07796 -2.46353,-0.23388c-2.52589,-0.53012 -4.14745,-2.99365 -3.63292,-5.53513c0.53012,-2.52589 2.99365,-4.14745 5.53513,-3.63292c0.29625,0.06237 3.05602,0.48335 11.14823,-3.2743c2.33879,-1.09143 5.12975,-0.06237 6.20559,2.27642c1.09143,2.33879 0.06237,5.12975 -2.27642,6.20559c-6.03408,2.82214 -10.8208,4.19423 -14.51609,4.19423z" fill="#33cc99" stroke="none" stroke-width="1" stroke-linecap="butt"/><path d="M208.8002,200.63592c-1.57479,0 -3.1028,-0.79519 -3.99153,-2.22964c-1.3565,-2.19847 -0.67045,-5.08297 1.52801,-6.43947c7.67123,-4.73995 16.0441,-10.75843 24.19868,-17.43178c10.77403,-8.80945 20.45662,-18.14901 27.23911,-26.288c7.29702,-8.74708 8.96536,-13.37788 9.02773,-14.73437c-1.26295,-1.98018 -0.88874,-4.6308 0.98229,-6.14322c1.99577,-1.63716 4.94265,-1.34091 6.57979,0.65486c2.29201,2.80655 2.40116,6.72012 0.29625,11.61599c-1.48123,3.44582 -4.08509,7.5465 -7.76478,12.20848c-7.23466,9.16806 -18.05546,19.80175 -30.43545,29.93651c-8.46642,6.92282 -17.1979,13.20637 -25.21215,18.14901c-0.764,0.46775 -1.62156,0.70164 -2.44793,0.70164zM183.63482,211.31639c-2.61945,0 -5.45717,-0.68604 -7.37498,-3.04043c-1.63716,-1.99577 -1.34091,-4.94265 0.65486,-6.57979c1.85544,-1.51242 4.52166,-1.37209 6.20559,0.24947c0.73282,0.09355 3.66411,0.10914 11.0079,-3.2899c2.33879,-1.09143 5.12975,-0.06237 6.20559,2.27642c1.07585,2.33879 0.06237,5.12975 -2.27642,6.20559c-4.56844,2.1205 -8.4976,3.44582 -11.67836,3.94476c-0.84196,0.14033 -1.77748,0.23388 -2.74418,0.23388zM183.49449,202.35104z" fill="#33cc99" stroke="none" stroke-width="1" stroke-linecap="butt"/></g></g></svg>